<svg id="Capa_1" enable-background="new 0 0 512 512" height="512" viewBox="0 0 512 512" width="512" xmlns="http://www.w3.org/2000/svg"><path d="m476.035 369.377-9.261 2.761-38.168 11.352v-140.783h45.05c3.472 15.731 32.131 38.323 37.488 65.756 3.574 18.347-3.277 38.858-35.109 60.914z" fill="#fa4954"/><path d="m476.035 369.377-9.261 2.761-2.647-26.373s47.007-20.13 47.007-37.303h.01c3.574 18.348-3.277 38.859-35.109 60.915z" fill="#e21f2d"/><path d="m457.609 312.593c0 15.233-1.546 29.143-4.76 41.767-15.502 60.769-69.904 91.65-178.679 95.297-13.8.463-26.728-6.772-33.559-18.772l-21.475-37.725c-26.176-66.558-3.24-89.618 36.092-103.132 45.39-15.616 112.628-18.51 151.341-60.969 35.411-38.824 51.04-9.916 51.04 83.534z" fill="#fa4954"/><path d="m452.849 354.361c-15.502 60.769-69.904 91.65-178.679 95.297-13.8.463-26.728-6.772-33.559-18.772l-21.475-37.725c-26.176-66.558-3.24-89.618 36.092-103.132-31.356 53.687 45.736 104.369 173.375 66.076 11.139-3.339 19.065-3.76 24.246-1.744z" fill="#e21f2d"/><path d="m471.758 89.168c-20.357-35.891-50.644-44.11-74.56-30.545s-32.406 43.777-12.049 79.668 60.951 60.223 84.867 46.658 22.099-59.891 1.742-95.781z" fill="#f4a86d"/><path d="m469.023 185.465c-24.025 12.385-63.797-11.777-83.874-47.175-20.361-35.898-11.875-66.105 12.037-79.668-8.627 4.893-4.727 28.075 15.633 63.973 20.038 35.329 47.129 66.578 56.204 62.87z" fill="#e89858"/><path d="m297.433 403.868c-.361 6.078-1.587 11.775-3.801 16.689-.804 2.071-1.988 4.1-3.534 6.068-.031.031-.051.072-.082.113-.052.062-.113.123-.165.196-14.721 18.244-60.152 31.544-113.917 31.544-65.684-.001-175.934-19.842-175.934-44.309 0-13.65 34.295-25.857 76.027-33.975 33.1-6.459 70.866-10.343 99.907-10.343 17.935 0 41.846-41.599 77.098-37.488 27.166 3.163 46.142 41.918 44.401 71.505z" fill="#f4a86d"/><path d="m501.193 441.976c4.635 7.737-.899 17.569-9.918 17.569h-53.623c-24.469 0-44.314-97.469-44.314-155.545 0-58.064 19.845-105.135 44.314-105.135s44.314 47.072 44.314 105.135c0 32.84-6.343 78.267-16.284 111.54 16.177 0 28.167 14.176 35.511 26.436z" fill="#f4a86d"/><g fill="#e89858"><path d="m437.641 459.545c-24.469 0-44.302-97.469-44.302-155.545 0-58.064 19.833-105.135 44.302-105.135-7.332 0-13.292 47.072-13.292 105.135 0 58.076 5.959 155.545 13.292 155.545z"/><path d="m297.433 403.868c-.361 6.078-1.587 11.775-3.801 16.689-.804 2.071-1.988 4.1-3.534 6.068-.031.031-.051.072-.082.113-.052.062-.113.123-.165.196-14.721 18.244-60.152 31.544-113.917 31.544-65.684-.001-175.934-19.842-175.934-44.309 0-13.65 34.295-25.857 76.027-33.975-17.915 17.915 48.037 66.148 152.775 48.418 23.736-4.017 51.375-15.617 68.631-24.744z"/></g></svg>