<svg id="Capa_1" enable-background="new 0 0 512 512" height="512" viewBox="0 0 512 512" width="512" xmlns="http://www.w3.org/2000/svg"><path d="m492.861 162.355c-2.599-19.795-116.279-21.19-160.494-15.384s-77.95 26.559-75.351 46.354 40.549 31.135 84.764 25.329 153.68-36.504 151.081-56.299z" fill="#f4a86d"/><path d="m474.772 179.643c-32.537 16.979-100.445 34.735-132.992 39.01-44.213 5.808-82.165-5.535-84.756-25.328-2.601-19.793 31.136-40.543 75.349-46.351 5.858-.766 12.926-1.412 20.801-1.906-5.304 5.798-7.925 11.958-7.129 18.038 2.591 19.793 40.543 31.136 84.756 25.328 11.353-1.491 27.012-4.627 43.971-8.791z" fill="#e89858"/><path d="m183.516 227.873 30.543 77.028-42.272 51.149s-79.21 17.665-130.758-30.849c-23.04-21.676-21.277-53.895-11.315-79.857l.004-.009c10.09-26.297 28.592-46.18 38.255-42.218 19.205 7.865 15.739 71.797 15.739 71.797 11.052-8.885 25.405-12.802 36.423-14.519 9.721-1.514 16.849-1.328 16.849-1.328l14.927-27.585z" fill="#f4a86d"/><path d="m151.91 231.481 48.828 35.527 13.321 37.893-42.272 51.149s-79.21 17.665-130.758-30.849c-23.04-21.676-21.277-53.895-11.315-79.857-6.939 25.934 59.918 100.788 99.253 75.021 25.472-16.69 38.062-39.851 20.539-56.021 9.721-1.514-12.523-5.278-12.523-5.278z" fill="#e89858"/><path d="m343.258 53.81c-1.945-36.534-22.722-55.043-47.067-53.746-24.345 1.296-43.039 21.907-41.093 58.441s24.523 71.907 48.867 70.61c24.345-1.296 41.239-38.771 39.293-75.305z" fill="#f4a86d"/><path d="m302.973 129.132c-23.964.317-45.956-34.595-47.875-70.627-1.946-36.541 16.743-57.149 41.083-58.445-8.782.468-14.863 20.405-12.917 56.945 1.915 35.961 11.041 71.476 19.709 72.127z" fill="#e89858"/><path d="m246.931 125.523c-18.005 0-51.262 9.468-58.738 43.589-6.973 31.827-41.869 62.307-58.684 90.216-18.026 29.919-12.157 68.457 13.632 92.016.366.334.732.669 1.098 1.003 34.336 31.368 88.8 23.461 112.786-16.383 25.118-41.725 43.259-87.282 53.7-134.851 9.97-45.426-17.287-75.59-63.794-75.59z" fill="#fa4954"/><path d="m258.615 333.274c-.525.896-1.061 1.792-1.597 2.689-23.982 39.847-78.447 47.748-112.783 16.38-.361-.33-.731-.67-1.102-.999-25.785-23.56-31.657-62.099-13.629-92.015 16.812-27.907 51.715-58.39 58.689-90.222 7.469-34.119 40.733-43.587 58.73-43.587.896 0 1.782.01 2.668.041-.567 1.71-1.051 3.503-1.453 5.357-6.974 31.832-41.876 62.315-58.689 90.222-18.028 29.916-12.156 68.455 13.629 92.015.371.33.731.67 1.102.999 15.577 14.226 35.295 20.376 54.435 19.12z" fill="#e21f2d"/><path d="m19.412 87.789c6.694-18.809 118.137 3.674 160.15 18.626s70.644 42.321 63.95 61.129c-6.694 18.809-46.178 21.936-88.191 6.984-42.012-14.952-142.603-67.93-135.909-86.739z" fill="#f4a86d"/><path d="m233.524 178.289c-15.709 8.53-46.219 7.623-78.202-3.761-42.016-14.953-142.602-67.928-135.906-86.743 2.349-6.604 17.615-8.117 38.254-6.655-.313.424-.555.877-.726 1.361-6.695 18.804 93.901 71.79 135.906 86.732 14.237 5.073 28.191 8.067 40.674 9.066z" fill="#e89858"/><path d="m175.328 362.42c-10.369-43.849-1.001-83.598 20.923-88.783 21.924-5.184 48.103 26.159 58.472 70.008s19.775 162.994-2.149 168.178c-21.924 5.185-66.877-105.554-77.246-149.403z" fill="#f4a86d"/><path d="m203.999 273.273c-10.771 15.736-13.762 45.659-6.172 77.784 8.671 36.662 41.517 120.091 64.862 143.42-2.114 9.817-5.388 16.226-10.114 17.347-21.922 5.188-66.876-105.549-77.242-149.397-10.374-43.851-1.005-83.599 20.924-88.784 2.536-.601 5.124-.714 7.742-.37z" fill="#e89858"/></svg>